<svg xmlns="http://www.w3.org/2000/svg" viewBox="0 0 200 150">
  <path d="M 150,75
    C 150,58 142,46 130,40
    C 124,37 120,32 115,30
    C 108,27 102,28 100,30
    C 98,28 92,27 85,30
    C 80,32 76,37 70,40
    C 58,46 50,58 50,75
    C 50,82 53,90 58,96
    C 62,101 60,106 63,110
    C 68,117 76,120 85,120
    C 90,122 95,120 100,118
    C 105,120 110,122 115,120
    C 124,120 132,117 137,110
    C 140,106 138,101 142,96
    C 147,90 150,82 150,75 Z"
    fill="#3a4a5a" stroke="#60a5fa" stroke-width="2.5"/>
</svg>
